<svg xmlns="http://www.w3.org/2000/svg" xmlns:xlink="http://www.w3.org/1999/xlink" width="500" zoomAndPan="magnify" viewBox="0 0 375 374.999991" height="500" preserveAspectRatio="xMidYMid meet" version="1.0"><defs><g/><clipPath id="33356856a3"><path d="M 12.585938 13.945312 L 364.898438 13.945312 L 364.898438 366.253906 L 12.585938 366.253906 Z M 12.585938 13.945312 " clip-rule="nonzero"/></clipPath><clipPath id="3441c5a74c"><path d="M 188.742188 13.945312 C 91.453125 13.945312 12.585938 92.8125 12.585938 190.101562 C 12.585938 287.386719 91.453125 366.253906 188.742188 366.253906 C 286.03125 366.253906 364.898438 287.386719 364.898438 190.101562 C 364.898438 92.8125 286.03125 13.945312 188.742188 13.945312 Z M 188.742188 13.945312 " clip-rule="nonzero"/></clipPath><clipPath id="e0c49a40ad"><path d="M 12.585938 13.945312 L 364.886719 13.945312 L 364.886719 366.246094 L 12.585938 366.246094 Z M 12.585938 13.945312 " clip-rule="nonzero"/></clipPath><clipPath id="ef678490cd"><path d="M 188.738281 13.945312 C 91.453125 13.945312 12.585938 92.8125 12.585938 190.097656 C 12.585938 287.382812 91.453125 366.246094 188.738281 366.246094 C 286.023438 366.246094 364.886719 287.382812 364.886719 190.097656 C 364.886719 92.8125 286.023438 13.945312 188.738281 13.945312 Z M 188.738281 13.945312 " clip-rule="nonzero"/></clipPath><clipPath id="6665ed72a8"><path d="M 57.171875 53.773438 L 325.070312 53.773438 L 325.070312 321.671875 L 57.171875 321.671875 Z M 57.171875 53.773438 " clip-rule="nonzero"/></clipPath><clipPath id="b115c7d15b"><path d="M 191.121094 53.773438 C 117.140625 53.773438 57.171875 113.746094 57.171875 187.722656 C 57.171875 261.699219 117.140625 321.671875 191.121094 321.671875 C 265.097656 321.671875 325.070312 261.699219 325.070312 187.722656 C 325.070312 113.746094 265.097656 53.773438 191.121094 53.773438 Z M 191.121094 53.773438 " clip-rule="nonzero"/></clipPath><clipPath id="589e615fce"><path d="M 50.273438 131 L 328.523438 131 L 328.523438 274 L 50.273438 274 Z M 50.273438 131 " clip-rule="nonzero"/></clipPath><clipPath id="edbe132ba8"><path d="M 24.59375 27.191406 L 352.34375 27.191406 L 352.34375 354.941406 L 24.59375 354.941406 Z M 24.59375 27.191406 " clip-rule="nonzero"/></clipPath><clipPath id="15f39f4291"><path d="M 75 204 L 161 204 L 161 288 L 75 288 Z M 75 204 " clip-rule="nonzero"/></clipPath><clipPath id="9ec952e46b"><path d="M 102.929688 79.714844 L 192.195312 96.058594 L 154.785156 300.410156 L 65.519531 284.070312 Z M 102.929688 79.714844 " clip-rule="nonzero"/></clipPath><clipPath id="08dba64e1f"><path d="M 102.929688 79.714844 L 192.195312 96.058594 L 154.785156 300.410156 L 65.519531 284.070312 Z M 102.929688 79.714844 " clip-rule="nonzero"/></clipPath><clipPath id="c19f4d7293"><path d="M 102.929688 79.714844 L 192.195312 96.058594 L 154.785156 300.410156 L 65.519531 284.070312 Z M 102.929688 79.714844 " clip-rule="nonzero"/></clipPath><clipPath id="e7d763db20"><path d="M 65 192 L 173 192 L 173 300 L 65 300 Z M 65 192 " clip-rule="nonzero"/></clipPath><clipPath id="ab0e36dd39"><path d="M 102.929688 79.714844 L 192.195312 96.058594 L 154.785156 300.410156 L 65.519531 284.070312 Z M 102.929688 79.714844 " clip-rule="nonzero"/></clipPath><clipPath id="11dd6da708"><path d="M 102.929688 79.714844 L 192.195312 96.058594 L 154.785156 300.410156 L 65.519531 284.070312 Z M 102.929688 79.714844 " clip-rule="nonzero"/></clipPath><clipPath id="7f4049dd9f"><path d="M 102.929688 79.714844 L 192.195312 96.058594 L 154.785156 300.410156 L 65.519531 284.070312 Z M 102.929688 79.714844 " clip-rule="nonzero"/></clipPath><clipPath id="a44943569b"><path d="M 75 205 L 128 205 L 128 288 L 75 288 Z M 75 205 " clip-rule="nonzero"/></clipPath><clipPath id="c658ca3202"><path d="M 102.929688 79.714844 L 192.195312 96.058594 L 154.785156 300.410156 L 65.519531 284.070312 Z M 102.929688 79.714844 " clip-rule="nonzero"/></clipPath><clipPath id="cb44e8478e"><path d="M 102.929688 79.714844 L 192.195312 96.058594 L 154.785156 300.410156 L 65.519531 284.070312 Z M 102.929688 79.714844 " clip-rule="nonzero"/></clipPath><clipPath id="474f6da94f"><path d="M 102.929688 79.714844 L 192.195312 96.058594 L 154.785156 300.410156 L 65.519531 284.070312 Z M 102.929688 79.714844 " clip-rule="nonzero"/></clipPath><clipPath id="49480a653d"><path d="M 117 91 L 171 91 L 171 206 L 117 206 Z M 117 91 " clip-rule="nonzero"/></clipPath><clipPath id="eea2b467c5"><path d="M 102.929688 79.714844 L 192.195312 96.058594 L 154.785156 300.410156 L 65.519531 284.070312 Z M 102.929688 79.714844 " clip-rule="nonzero"/></clipPath><clipPath id="2093aabe53"><path d="M 102.929688 79.714844 L 192.195312 96.058594 L 154.785156 300.410156 L 65.519531 284.070312 Z M 102.929688 79.714844 " clip-rule="nonzero"/></clipPath><clipPath id="57df5b5028"><path d="M 102.929688 79.714844 L 192.195312 96.058594 L 154.785156 300.410156 L 65.519531 284.070312 Z M 102.929688 79.714844 " clip-rule="nonzero"/></clipPath><clipPath id="c4c4e0e718"><path d="M 108 82 L 180 82 L 180 216 L 108 216 Z M 108 82 " clip-rule="nonzero"/></clipPath><clipPath id="a5f731b0fd"><path d="M 102.929688 79.714844 L 192.195312 96.058594 L 154.785156 300.410156 L 65.519531 284.070312 Z M 102.929688 79.714844 " clip-rule="nonzero"/></clipPath><clipPath id="662eb351ee"><path d="M 102.929688 79.714844 L 192.195312 96.058594 L 154.785156 300.410156 L 65.519531 284.070312 Z M 102.929688 79.714844 " clip-rule="nonzero"/></clipPath><clipPath id="2ebef9aa3d"><path d="M 102.929688 79.714844 L 192.195312 96.058594 L 154.785156 300.410156 L 65.519531 284.070312 Z M 102.929688 79.714844 " clip-rule="nonzero"/></clipPath><clipPath id="1b1fef83ec"><path d="M 132 212 L 153 212 L 153 231 L 132 231 Z M 132 212 " clip-rule="nonzero"/></clipPath><clipPath id="32a6aeb602"><path d="M 102.929688 79.714844 L 192.195312 96.058594 L 154.785156 300.410156 L 65.519531 284.070312 Z M 102.929688 79.714844 " clip-rule="nonzero"/></clipPath><clipPath id="1c538880be"><path d="M 102.929688 79.714844 L 192.195312 96.058594 L 154.785156 300.410156 L 65.519531 284.070312 Z M 102.929688 79.714844 " clip-rule="nonzero"/></clipPath><clipPath id="1c17c2b301"><path d="M 102.929688 79.714844 L 192.195312 96.058594 L 154.785156 300.410156 L 65.519531 284.070312 Z M 102.929688 79.714844 " clip-rule="nonzero"/></clipPath></defs><rect x="-37.5" width="450" fill="#ffffff" y="-37.499999" height="449.999989" fill-opacity="1"/><rect x="-37.5" width="450" fill="#ffffff" y="-37.499999" height="449.999989" fill-opacity="1"/><g clip-path="url(#33356856a3)"><g clip-path="url(#3441c5a74c)"><path fill="#f7a81b" d="M 12.585938 13.945312 L 364.898438 13.945312 L 364.898438 366.253906 L 12.585938 366.253906 Z M 12.585938 13.945312 " fill-opacity="1" fill-rule="nonzero"/></g></g><g clip-path="url(#e0c49a40ad)"><g clip-path="url(#ef678490cd)"><path stroke-linecap="butt" transform="matrix(0.75, 0, 0, 0.75, 12.586959, 13.94565)" fill="none" stroke-linejoin="miter" d="M 234.868445 -0.000450379 C 105.154895 -0.000450379 -0.00136226 105.155807 -0.00136226 234.869357 C -0.00136226 364.582907 105.154895 469.733955 234.868445 469.733955 C 364.581995 469.733955 469.733044 364.582907 469.733044 234.869357 C 469.733044 105.155807 364.581995 -0.000450379 234.868445 -0.000450379 Z M 234.868445 -0.000450379 " stroke="#17458f" stroke-width="8" stroke-opacity="1" stroke-miterlimit="4"/></g></g><g clip-path="url(#6665ed72a8)"><g clip-path="url(#b115c7d15b)"><path fill="#00a2e0" d="M 57.171875 53.773438 L 325.070312 53.773438 L 325.070312 321.671875 L 57.171875 321.671875 Z M 57.171875 53.773438 " fill-opacity="1" fill-rule="nonzero"/></g></g><g clip-path="url(#589e615fce)"><path fill="#ffffff" d="M 15.660156 265.15625 C 15.660156 265.15625 51.226562 238.054688 65.339844 231.28125 C 79.457031 224.503906 77.199219 225.632812 95.828125 207.003906 C 114.460938 188.371094 115.589844 195.710938 129.703125 179.339844 C 143.816406 162.96875 145.511719 147.722656 156.804688 163.53125 C 168.09375 179.339844 170.917969 191.195312 179.953125 175.386719 C 188.984375 159.578125 207.617188 127.960938 214.390625 131.914062 C 221.167969 135.867188 235.953125 158.707031 242.726562 167.238281 C 249.503906 175.769531 250.757812 171.753906 255.527344 179.03125 C 260.292969 186.308594 264.808594 187.0625 269.828125 193.335938 C 274.847656 199.609375 295.675781 178.53125 300.695312 173.761719 C 305.714844 168.996094 330.304688 202.367188 342.347656 208.894531 C 354.394531 215.417969 354.144531 222.195312 361.421875 225.707031 C 368.699219 229.21875 417.628906 268.46875 410.605469 265.15625 C 403.578125 261.839844 400.316406 254.8125 394.296875 255.566406 C 388.273438 256.320312 387.019531 263.597656 382 256.320312 C 376.976562 249.042969 380.992188 245.28125 365.6875 236.496094 C 350.378906 227.714844 345.359375 221.691406 339.839844 224.703125 C 334.320312 227.714844 345.359375 235.742188 347.617188 243.773438 C 349.878906 251.804688 355.902344 266.859375 350.128906 256.824219 C 344.359375 246.785156 344.359375 243.523438 336.078125 236.746094 C 327.792969 229.972656 329.550781 230.976562 325.289062 226.460938 C 321.019531 221.945312 318.511719 214.664062 314.246094 206.636719 C 309.980469 198.605469 310.984375 189.070312 307.96875 193.335938 C 304.960938 197.601562 304.960938 197.601562 304.960938 197.601562 C 304.960938 197.601562 309.476562 202.871094 308.222656 208.140625 C 306.96875 213.410156 312.742188 220.941406 314.246094 225.957031 C 315.75 230.976562 325.035156 245.027344 326.539062 250.550781 C 328.046875 256.070312 330.304688 262.84375 321.273438 247.039062 C 312.238281 231.226562 314.996094 239.257812 309.226562 233.488281 C 303.457031 227.714844 306.214844 218.179688 303.457031 222.195312 C 300.695312 226.207031 299.441406 228.21875 295.925781 235.242188 C 292.414062 242.265625 281.625 241.265625 280.621094 247.539062 C 279.617188 253.8125 271.082031 259.585938 273.089844 254.0625 C 275.097656 248.542969 270.832031 259.835938 280.621094 239.507812 C 290.40625 219.183594 291.410156 224.703125 290.90625 215.167969 C 290.40625 205.632812 294.796875 200.363281 291.53125 201.238281 C 288.273438 202.117188 286.261719 206.382812 282.375 210.777344 C 278.488281 215.167969 274.472656 218.929688 274.09375 222.820312 C 273.71875 226.710938 270.960938 233.109375 271.710938 228.339844 C 272.464844 223.574219 272.714844 223.699219 272.210938 220.1875 C 271.710938 216.671875 274.972656 216.296875 275.980469 210.648438 C 276.980469 205.003906 289.027344 197.226562 288.527344 196.222656 C 288.019531 195.21875 281.246094 196.722656 277.230469 200.234375 C 273.214844 203.75 272.339844 209.519531 266.191406 213.660156 C 260.042969 217.804688 252.011719 223.324219 246.996094 228.59375 C 241.976562 233.863281 234.699219 231.226562 233.945312 243.019531 C 233.191406 254.8125 234.949219 268.617188 232.691406 260.335938 C 230.433594 252.054688 230.933594 247.539062 229.179688 250.046875 C 227.421875 252.558594 226.414062 255.316406 221.148438 259.082031 C 215.878906 262.84375 208.351562 268.113281 212.363281 262.09375 C 216.378906 256.070312 212.363281 265.355469 221.148438 253.308594 C 229.929688 241.265625 218.136719 243.773438 228.171875 234.742188 C 238.210938 225.707031 264.558594 206.636719 264.308594 203.621094 C 264.054688 200.613281 264.308594 202.367188 256.28125 207.640625 C 248.25 212.910156 238.710938 214.664062 231.683594 222.695312 C 224.660156 230.722656 207.597656 231.730469 208.851562 242.769531 C 210.105469 253.8125 212.867188 253.058594 202.578125 246.785156 C 192.289062 240.511719 204.335938 238.757812 188.023438 247.539062 C 171.714844 256.320312 165.691406 251.050781 165.691406 257.074219 C 165.691406 263.097656 149.128906 274.386719 145.363281 273.382812 C 141.601562 272.382812 143.355469 274.011719 148.125 271.25 C 152.890625 268.492188 152.265625 267.238281 155.023438 265.230469 C 157.785156 263.222656 160.042969 259.457031 159.167969 258.328125 C 158.289062 257.199219 156.027344 256.320312 151.765625 257.449219 C 147.496094 258.582031 143.105469 259.207031 140.597656 256.824219 C 138.085938 254.4375 136.207031 252.304688 142.605469 254.0625 C 149.003906 255.816406 144.738281 251.050781 156.65625 248.917969 C 168.574219 246.785156 163.054688 243.902344 177.734375 237.375 C 192.414062 230.851562 196.179688 231.226562 201.449219 228.339844 C 206.71875 225.457031 208.851562 223.574219 212.113281 216.546875 C 215.375 209.519531 218.136719 212.785156 217.132812 205.507812 C 216.128906 198.230469 218.136719 198.855469 211.988281 201.238281 C 205.839844 203.621094 207.722656 196.847656 201.324219 205.128906 C 194.925781 213.410156 193.667969 208.265625 186.769531 215.671875 C 179.867188 223.070312 168.324219 234.238281 169.832031 229.71875 C 171.335938 225.207031 176.730469 226.460938 177.859375 220.4375 C 178.988281 214.414062 186.644531 207.296875 191.410156 202.511719 C 196.179688 197.726562 196.554688 199.109375 204.710938 188.691406 C 212.867188 178.28125 223.15625 171.378906 218.761719 171.253906 C 214.371094 171.128906 214.371094 166.863281 212.492188 170.375 C 210.609375 173.886719 209.730469 173.386719 205.714844 177.652344 C 201.699219 181.917969 197.9375 181.039062 195.804688 186.6875 C 193.667969 192.332031 196.808594 189.445312 188.523438 197.476562 C 180.246094 205.507812 174.097656 215.542969 175.351562 209.894531 C 176.605469 204.253906 178.238281 207.011719 180.246094 199.109375 C 182.253906 191.203125 187.648438 190.824219 192.414062 184.175781 C 197.183594 177.527344 212.867188 167.363281 212.613281 160.714844 C 212.363281 154.066406 214.25 153.9375 212.492188 151.179688 C 210.734375 148.417969 211.359375 142.019531 208.351562 145.410156 C 205.339844 148.796875 204.210938 149.796875 198.6875 157.957031 C 193.167969 166.109375 194.046875 160.714844 188.148438 169.996094 C 182.253906 179.28125 178.863281 180.414062 173.46875 189.195312 C 173.46875 189.195312 173.53125 192.742188 163.558594 202.511719 C 153.582031 212.28125 154.710938 210.023438 148.3125 221.878906 C 141.914062 233.738281 139.46875 231.289062 139.46875 238.441406 C 139.46875 238.441406 139.53125 238.691406 139.78125 241.199219 C 140.03125 243.710938 142.542969 248.039062 141.726562 248.226562 C 140.910156 248.417969 140.785156 245.21875 138.527344 244.277344 C 136.269531 243.335938 138.652344 241.453125 133.695312 243.460938 C 128.738281 245.46875 131.9375 242.707031 128.675781 240.636719 C 125.414062 238.566406 133.003906 233.046875 132.316406 229.972656 C 131.625 226.898438 135.203125 226.082031 133.882812 223.070312 C 132.566406 220.058594 134.574219 219.496094 132.378906 218.554688 C 130.183594 217.613281 118.390625 233.546875 112.179688 234.113281 C 105.96875 234.675781 97.6875 247.664062 95.804688 248.226562 C 93.921875 248.792969 89.03125 254.0625 89.96875 251.304688 C 90.910156 248.542969 93.921875 248.039062 96.933594 243.964844 C 99.945312 239.882812 101.324219 233.738281 105.402344 231.789062 C 109.480469 229.847656 116.632812 226.523438 120.332031 221.0625 C 124.035156 215.605469 128.488281 212.28125 128.363281 208.832031 C 128.238281 205.378906 140.785156 198.542969 144.546875 191.957031 C 148.3125 185.371094 153.957031 187.4375 154.148438 181.792969 C 154.335938 176.148438 154.523438 174.074219 152.453125 173.136719 C 150.382812 172.195312 152.078125 178.40625 148.5 179.53125 C 144.925781 180.664062 143.984375 183.109375 141.539062 184.992188 C 139.089844 186.875 138.148438 190.640625 136.078125 193.085938 C 134.007812 195.53125 130.058594 195.34375 128.175781 199.484375 C 126.292969 203.621094 125.601562 200.550781 129.304688 194.96875 C 133.003906 189.382812 134.199219 189.445312 137.585938 186.121094 C 140.972656 182.796875 145.050781 175.644531 147.875 173.949219 C 150.695312 172.257812 150.695312 172.382812 150.007812 169.433594 C 149.316406 166.484375 149.066406 165.167969 147.875 164.726562 C 146.683594 164.289062 145.175781 164.351562 142.542969 168.804688 C 139.90625 173.261719 133.945312 178.90625 130.183594 181.792969 C 126.417969 184.675781 129.179688 184.175781 120.144531 190.199219 C 111.113281 196.222656 115 196.972656 105.464844 203.5 C 95.929688 210.023438 93.734375 210.964844 94.296875 218.492188 C 94.863281 226.019531 86.769531 229.21875 87.335938 237.5 C 87.898438 245.78125 86.394531 262.34375 84.886719 253.875 C 83.382812 245.40625 82.066406 245.78125 81.5 239.570312 C 80.9375 233.359375 81.6875 227.902344 76.796875 230.535156 C 71.902344 233.175781 73.597656 230.351562 64 236.746094 C 54.398438 243.148438 56.46875 238.441406 46.496094 246.535156 C 36.519531 254.628906 12.863281 269.847656 15.660156 265.15625 " fill-opacity="1" fill-rule="nonzero"/></g><g clip-path="url(#edbe132ba8)"><path fill="#17458f" d="M 188.675781 27.191406 C 98.058594 27.191406 24.59375 100.65625 24.59375 191.273438 C 24.59375 281.894531 98.058594 355.355469 188.675781 355.355469 C 279.292969 355.355469 352.753906 281.894531 352.753906 191.273438 C 352.753906 100.65625 279.292969 27.191406 188.675781 27.191406 Z M 188.675781 321.175781 C 116.929688 321.175781 58.777344 263.015625 58.777344 191.277344 C 58.777344 119.535156 116.929688 61.378906 188.675781 61.378906 C 260.414062 61.378906 318.570312 119.535156 318.570312 191.277344 C 318.570312 263.015625 260.414062 321.175781 188.675781 321.175781 Z M 188.675781 321.175781 " fill-opacity="1" fill-rule="nonzero"/></g><g fill="#fcfdfd" fill-opacity="1"><g transform="translate(52.994251, 190.807524)"><g><path d="M -8.8125 -21.609375 C -7.320312 -21.492188 -5.957031 -21.132812 -4.71875 -20.53125 C -3.488281 -19.925781 -2.445312 -19.113281 -1.59375 -18.09375 C -0.75 -17.082031 -0.117188 -15.894531 0.296875 -14.53125 C 0.722656 -13.175781 0.875 -11.6875 0.75 -10.0625 L 0.15625 -2.015625 L -20.59375 -3.578125 L -20 -11.625 C -19.875 -13.25 -19.5 -14.703125 -18.875 -15.984375 C -18.257812 -17.265625 -17.453125 -18.34375 -16.453125 -19.21875 C -15.460938 -20.09375 -14.316406 -20.738281 -13.015625 -21.15625 C -11.710938 -21.570312 -10.3125 -21.722656 -8.8125 -21.609375 Z M -9.171875 -16.6875 C -10.203125 -16.757812 -11.140625 -16.691406 -11.984375 -16.484375 C -12.828125 -16.285156 -13.554688 -15.960938 -14.171875 -15.515625 C -14.785156 -15.066406 -15.273438 -14.488281 -15.640625 -13.78125 C -16.003906 -13.082031 -16.222656 -12.269531 -16.296875 -11.34375 L -16.53125 -8.140625 L -3.1875 -7.140625 L -2.953125 -10.34375 C -2.878906 -11.269531 -2.96875 -12.101562 -3.21875 -12.84375 C -3.46875 -13.59375 -3.863281 -14.238281 -4.40625 -14.78125 C -4.945312 -15.320312 -5.617188 -15.753906 -6.421875 -16.078125 C -7.222656 -16.410156 -8.140625 -16.613281 -9.171875 -16.6875 Z M -9.171875 -16.6875 "/></g></g></g><g fill="#fcfdfd" fill-opacity="1"><g transform="translate(54.61845, 170.438105)"><g><path d="M -15.328125 -10.234375 L -10.5625 -9.234375 L -9.234375 -15.625 L -5.75 -14.890625 L -7.078125 -8.5 L -2.234375 -7.5 L -0.5 -15.84375 L 3.140625 -15.078125 L 0.40625 -1.96875 L -19.96875 -6.21875 L -17.234375 -19.328125 L -13.59375 -18.578125 Z M -15.328125 -10.234375 "/></g></g></g><g fill="#fcfdfd" fill-opacity="1"><g transform="translate(57.425921, 155.621972)"><g><path d="M -12.953125 -25.9375 L 6.6875 -19.03125 L 5.859375 -16.671875 C 5.734375 -16.316406 5.570312 -16.039062 5.375 -15.84375 C 5.175781 -15.65625 4.898438 -15.488281 4.546875 -15.34375 L -10.40625 -10.203125 C -10.050781 -10.117188 -9.707031 -10.019531 -9.375 -9.90625 C -9.039062 -9.800781 -8.734375 -9.703125 -8.453125 -9.609375 L 2.078125 -5.90625 L 0.671875 -1.90625 L -18.96875 -8.8125 L -18.125 -11.203125 C -18.0625 -11.398438 -17.992188 -11.5625 -17.921875 -11.6875 C -17.859375 -11.820312 -17.78125 -11.929688 -17.6875 -12.015625 C -17.59375 -12.109375 -17.484375 -12.1875 -17.359375 -12.25 C -17.242188 -12.3125 -17.082031 -12.382812 -16.875 -12.46875 L -1.8125 -17.65625 C -2.207031 -17.738281 -2.582031 -17.832031 -2.9375 -17.9375 C -3.300781 -18.039062 -3.640625 -18.148438 -3.953125 -18.265625 L -14.359375 -21.921875 Z M -12.953125 -25.9375 "/></g></g></g><g fill="#fcfdfd" fill-opacity="1"><g transform="translate(64.278364, 136.026601)"><g><path d="M -8.796875 -27.984375 L 5.75 -10.921875 L 3.703125 -7.046875 L -18.59375 -9.359375 L -16.78125 -12.796875 C -16.59375 -13.171875 -16.347656 -13.421875 -16.046875 -13.546875 C -15.753906 -13.679688 -15.445312 -13.738281 -15.125 -13.71875 L -3.390625 -12.109375 C -2.859375 -12.046875 -2.296875 -11.960938 -1.703125 -11.859375 C -1.117188 -11.753906 -0.515625 -11.628906 0.109375 -11.484375 C -0.378906 -11.890625 -0.835938 -12.296875 -1.265625 -12.703125 C -1.691406 -13.117188 -2.078125 -13.53125 -2.421875 -13.9375 L -10.4375 -22.640625 C -10.625 -22.867188 -10.742188 -23.148438 -10.796875 -23.484375 C -10.859375 -23.828125 -10.800781 -24.175781 -10.625 -24.53125 Z M -8.796875 -27.984375 "/></g></g></g><g fill="#fcfdfd" fill-opacity="1"><g transform="translate(73.186042, 119.17906)"><g><path d="M -10.078125 -15.4375 L -6.09375 -12.640625 L -2.359375 -17.984375 L 0.5625 -15.953125 L -3.171875 -10.609375 L 0.890625 -7.765625 L 5.78125 -14.75 L 8.828125 -12.625 L 1.15625 -1.65625 L -15.90625 -13.578125 L -8.234375 -24.546875 L -5.1875 -22.421875 Z M -10.078125 -15.4375 "/></g></g></g><g fill="#fcfdfd" fill-opacity="1"><g transform="translate(81.760225, 106.653465)"><g><path d="M -2.359375 -13.90625 C -1.921875 -14.394531 -1.609375 -14.863281 -1.421875 -15.3125 C -1.242188 -15.769531 -1.160156 -16.207031 -1.171875 -16.625 C -1.191406 -17.039062 -1.304688 -17.425781 -1.515625 -17.78125 C -1.722656 -18.144531 -2 -18.484375 -2.34375 -18.796875 C -3.019531 -19.410156 -3.742188 -19.664062 -4.515625 -19.5625 C -5.296875 -19.457031 -6.101562 -18.941406 -6.9375 -18.015625 L -8.234375 -16.5625 L -3.65625 -12.453125 Z M 12.703125 -14.171875 L 9.78125 -10.921875 C 9.238281 -10.316406 8.628906 -10.085938 7.953125 -10.234375 L 1.140625 -11.6875 C 0.835938 -11.738281 0.570312 -11.726562 0.34375 -11.65625 C 0.125 -11.59375 -0.109375 -11.421875 -0.359375 -11.140625 L -1.171875 -10.234375 L 4.5625 -5.09375 L 1.34375 -1.5 L -14.15625 -15.390625 L -9.640625 -20.4375 C -8.628906 -21.5625 -7.65625 -22.410156 -6.71875 -22.984375 C -5.78125 -23.566406 -4.882812 -23.921875 -4.03125 -24.046875 C -3.175781 -24.179688 -2.363281 -24.113281 -1.59375 -23.84375 C -0.820312 -23.570312 -0.109375 -23.140625 0.546875 -22.546875 C 1.046875 -22.097656 1.457031 -21.601562 1.78125 -21.0625 C 2.101562 -20.53125 2.335938 -19.960938 2.484375 -19.359375 C 2.628906 -18.753906 2.675781 -18.125 2.625 -17.46875 C 2.582031 -16.8125 2.425781 -16.148438 2.15625 -15.484375 C 2.488281 -15.609375 2.835938 -15.691406 3.203125 -15.734375 C 3.578125 -15.773438 3.960938 -15.765625 4.359375 -15.703125 Z M 12.703125 -14.171875 "/></g></g></g><g fill="#fcfdfd" fill-opacity="1"><g transform="translate(93.870914, 93.47416)"><g/></g></g><g fill="#fcfdfd" fill-opacity="1"><g transform="translate(97.853827, 89.32522)"><g><path d="M 9.265625 -14.140625 C 9.359375 -14.210938 9.460938 -14.265625 9.578125 -14.296875 C 9.691406 -14.335938 9.820312 -14.347656 9.96875 -14.328125 L 12.734375 -13.9375 C 12.742188 -12.550781 12.425781 -11.25 11.78125 -10.03125 C 11.132812 -8.8125 10.132812 -7.671875 8.78125 -6.609375 C 7.539062 -5.628906 6.257812 -4.96875 4.9375 -4.625 C 3.625 -4.28125 2.328125 -4.207031 1.046875 -4.40625 C -0.222656 -4.613281 -1.4375 -5.082031 -2.59375 -5.8125 C -3.757812 -6.550781 -4.816406 -7.519531 -5.765625 -8.71875 C -6.722656 -9.9375 -7.40625 -11.210938 -7.8125 -12.546875 C -8.21875 -13.878906 -8.351562 -15.195312 -8.21875 -16.5 C -8.082031 -17.800781 -7.671875 -19.050781 -6.984375 -20.25 C -6.304688 -21.457031 -5.367188 -22.53125 -4.171875 -23.46875 C -3.554688 -23.957031 -2.929688 -24.363281 -2.296875 -24.6875 C -1.671875 -25.007812 -1.046875 -25.257812 -0.421875 -25.4375 C 0.191406 -25.613281 0.800781 -25.722656 1.40625 -25.765625 C 2.019531 -25.804688 2.597656 -25.789062 3.140625 -25.71875 L 3.234375 -23 C 3.234375 -22.820312 3.210938 -22.644531 3.171875 -22.46875 C 3.128906 -22.300781 3.003906 -22.132812 2.796875 -21.96875 C 2.660156 -21.863281 2.507812 -21.796875 2.34375 -21.765625 C 2.175781 -21.734375 1.988281 -21.703125 1.78125 -21.671875 C 1.582031 -21.648438 1.359375 -21.628906 1.109375 -21.609375 C 0.867188 -21.585938 0.601562 -21.535156 0.3125 -21.453125 C 0.03125 -21.367188 -0.273438 -21.238281 -0.609375 -21.0625 C -0.953125 -20.882812 -1.320312 -20.640625 -1.71875 -20.328125 C -2.34375 -19.835938 -2.828125 -19.273438 -3.171875 -18.640625 C -3.515625 -18.003906 -3.695312 -17.3125 -3.71875 -16.5625 C -3.75 -15.8125 -3.613281 -15.03125 -3.3125 -14.21875 C -3.007812 -13.414062 -2.53125 -12.597656 -1.875 -11.765625 C -1.21875 -10.921875 -0.519531 -10.265625 0.21875 -9.796875 C 0.96875 -9.328125 1.710938 -9.023438 2.453125 -8.890625 C 3.191406 -8.753906 3.914062 -8.773438 4.625 -8.953125 C 5.332031 -9.128906 5.984375 -9.457031 6.578125 -9.9375 C 6.921875 -10.195312 7.21875 -10.457031 7.46875 -10.71875 C 7.726562 -10.976562 7.953125 -11.242188 8.140625 -11.515625 C 8.328125 -11.796875 8.476562 -12.085938 8.59375 -12.390625 C 8.707031 -12.691406 8.796875 -13.03125 8.859375 -13.40625 C 8.890625 -13.550781 8.9375 -13.6875 9 -13.8125 C 9.070312 -13.945312 9.160156 -14.054688 9.265625 -14.140625 Z M 9.265625 -14.140625 "/></g></g></g><g fill="#fcfdfd" fill-opacity="1"><g transform="translate(111.35952, 78.42666)"><g><path d="M 7 -28.125 L 17.453125 -10.125 L 13.25 -7.703125 L 8.828125 -15.3125 L 1.53125 -11.0625 L 5.953125 -3.453125 L 1.75 -1.015625 L -8.703125 -19.015625 L -4.5 -21.453125 L -0.125 -13.921875 L 7.171875 -18.171875 L 2.796875 -25.703125 Z M 7 -28.125 "/></g></g></g><g fill="#fcfdfd" fill-opacity="1"><g transform="translate(129.467763, 68.037274)"><g><path d="M -0.21875 -18.421875 L 1.65625 -13.9375 L 7.6875 -16.4375 L 9.046875 -13.15625 L 3.015625 -10.65625 L 4.921875 -6.078125 L 12.8125 -9.34375 L 14.234375 -5.90625 L 1.859375 -0.765625 L -6.125 -19.984375 L 6.25 -25.125 L 7.671875 -21.6875 Z M -0.21875 -18.421875 "/></g></g></g><g fill="#fcfdfd" fill-opacity="1"><g transform="translate(143.429665, 62.081771)"><g><path d="M 5.484375 -13 C 6.117188 -13.175781 6.632812 -13.40625 7.03125 -13.6875 C 7.4375 -13.976562 7.738281 -14.300781 7.9375 -14.65625 C 8.144531 -15.019531 8.257812 -15.410156 8.28125 -15.828125 C 8.300781 -16.242188 8.253906 -16.671875 8.140625 -17.109375 C 7.890625 -17.992188 7.40625 -18.597656 6.6875 -18.921875 C 5.976562 -19.253906 5.019531 -19.253906 3.8125 -18.921875 L 1.953125 -18.390625 L 3.625 -12.46875 Z M 18.328125 -5.125 L 14.125 -3.953125 C 13.34375 -3.734375 12.695312 -3.867188 12.1875 -4.359375 L 7.25 -9.25 C 7.007812 -9.457031 6.78125 -9.59375 6.5625 -9.65625 C 6.34375 -9.71875 6.050781 -9.695312 5.6875 -9.59375 L 4.515625 -9.265625 L 6.59375 -1.84375 L 1.9375 -0.546875 L -3.671875 -20.59375 L 2.84375 -22.421875 C 4.300781 -22.828125 5.578125 -23.019531 6.671875 -23 C 7.773438 -22.976562 8.726562 -22.789062 9.53125 -22.4375 C 10.332031 -22.09375 10.976562 -21.597656 11.46875 -20.953125 C 11.957031 -20.316406 12.320312 -19.570312 12.5625 -18.71875 C 12.75 -18.070312 12.835938 -17.4375 12.828125 -16.8125 C 12.816406 -16.1875 12.707031 -15.578125 12.5 -14.984375 C 12.289062 -14.398438 11.992188 -13.84375 11.609375 -13.3125 C 11.222656 -12.789062 10.738281 -12.316406 10.15625 -11.890625 C 10.5 -11.816406 10.835938 -11.695312 11.171875 -11.53125 C 11.503906 -11.375 11.816406 -11.164062 12.109375 -10.90625 Z M 18.328125 -5.125 "/></g></g></g><g fill="#fcfdfd" fill-opacity="1"><g transform="translate(160.267982, 57.281359)"><g><path d="M 7.109375 -12.1875 C 7.765625 -12.28125 8.304688 -12.441406 8.734375 -12.671875 C 9.171875 -12.898438 9.515625 -13.179688 9.765625 -13.515625 C 10.015625 -13.847656 10.175781 -14.21875 10.25 -14.625 C 10.320312 -15.03125 10.328125 -15.460938 10.265625 -15.921875 C 10.128906 -16.828125 9.726562 -17.488281 9.0625 -17.90625 C 8.40625 -18.332031 7.457031 -18.457031 6.21875 -18.28125 L 4.296875 -18 L 5.1875 -11.90625 Z M 18.828125 -2.734375 L 14.515625 -2.109375 C 13.710938 -1.992188 13.09375 -2.207031 12.65625 -2.75 L 8.375 -8.234375 C 8.164062 -8.472656 7.953125 -8.632812 7.734375 -8.71875 C 7.523438 -8.8125 7.238281 -8.832031 6.875 -8.78125 L 5.65625 -8.609375 L 6.765625 -0.984375 L 2 -0.296875 L -0.984375 -20.890625 L 5.703125 -21.859375 C 7.203125 -22.078125 8.492188 -22.109375 9.578125 -21.953125 C 10.671875 -21.796875 11.585938 -21.488281 12.328125 -21.03125 C 13.078125 -20.582031 13.65625 -20.007812 14.0625 -19.3125 C 14.476562 -18.613281 14.75 -17.828125 14.875 -16.953125 C 14.976562 -16.285156 14.976562 -15.640625 14.875 -15.015625 C 14.78125 -14.398438 14.59375 -13.8125 14.3125 -13.25 C 14.039062 -12.695312 13.675781 -12.1875 13.21875 -11.71875 C 12.769531 -11.25 12.226562 -10.835938 11.59375 -10.484375 C 11.925781 -10.367188 12.25 -10.207031 12.5625 -10 C 12.875 -9.800781 13.15625 -9.550781 13.40625 -9.25 Z M 18.828125 -2.734375 "/></g></g></g><g fill="#fcfdfd" fill-opacity="1"><g transform="translate(177.571135, 54.673685)"><g><path d="M 11.875 -8.078125 L 11.984375 -0.171875 L 7.15625 -0.09375 L 7.046875 -8 L -0.6875 -20.8125 L 3.578125 -20.859375 C 3.992188 -20.867188 4.328125 -20.773438 4.578125 -20.578125 C 4.828125 -20.390625 5.03125 -20.144531 5.1875 -19.84375 L 8.21875 -13.828125 C 8.46875 -13.359375 8.691406 -12.914062 8.890625 -12.5 C 9.097656 -12.082031 9.285156 -11.679688 9.453125 -11.296875 C 9.585938 -11.703125 9.742188 -12.113281 9.921875 -12.53125 C 10.097656 -12.945312 10.3125 -13.390625 10.5625 -13.859375 L 13.390625 -19.953125 C 13.453125 -20.078125 13.53125 -20.203125 13.625 -20.328125 C 13.71875 -20.460938 13.828125 -20.578125 13.953125 -20.671875 C 14.085938 -20.773438 14.234375 -20.859375 14.390625 -20.921875 C 14.554688 -20.984375 14.738281 -21.019531 14.9375 -21.03125 L 19.21875 -21.078125 Z M 11.875 -8.078125 "/></g></g></g><g fill="#fcfdfd" fill-opacity="1"><g transform="translate(195.814789, 54.655216)"><g/></g></g><g fill="#fcfdfd" fill-opacity="1"><g transform="translate(201.564134, 54.781619)"><g><path d="M 16.6875 -2.75 C 16.800781 -2.738281 16.910156 -2.695312 17.015625 -2.625 C 17.117188 -2.5625 17.210938 -2.46875 17.296875 -2.34375 L 18.890625 -0.046875 C 17.878906 0.890625 16.707031 1.53125 15.375 1.875 C 14.039062 2.226562 12.523438 2.269531 10.828125 2 C 9.265625 1.75 7.90625 1.253906 6.75 0.515625 C 5.601562 -0.222656 4.671875 -1.128906 3.953125 -2.203125 C 3.242188 -3.273438 2.765625 -4.488281 2.515625 -5.84375 C 2.265625 -7.195312 2.265625 -8.625 2.515625 -10.125 C 2.765625 -11.65625 3.242188 -13.023438 3.953125 -14.234375 C 4.660156 -15.441406 5.539062 -16.4375 6.59375 -17.21875 C 7.644531 -18.007812 8.84375 -18.554688 10.1875 -18.859375 C 11.53125 -19.171875 12.957031 -19.207031 14.46875 -18.96875 C 15.238281 -18.84375 15.953125 -18.65625 16.609375 -18.40625 C 17.273438 -18.15625 17.878906 -17.859375 18.421875 -17.515625 C 18.972656 -17.179688 19.472656 -16.800781 19.921875 -16.375 C 20.367188 -15.957031 20.753906 -15.523438 21.078125 -15.078125 L 19.109375 -13.1875 C 18.984375 -13.070312 18.84375 -12.96875 18.6875 -12.875 C 18.539062 -12.789062 18.335938 -12.769531 18.078125 -12.8125 C 17.910156 -12.832031 17.753906 -12.894531 17.609375 -13 C 17.460938 -13.101562 17.3125 -13.222656 17.15625 -13.359375 C 17.007812 -13.503906 16.84375 -13.65625 16.65625 -13.8125 C 16.476562 -13.96875 16.257812 -14.125 16 -14.28125 C 15.75 -14.4375 15.441406 -14.578125 15.078125 -14.703125 C 14.722656 -14.835938 14.296875 -14.945312 13.796875 -15.03125 C 13.015625 -15.15625 12.269531 -15.128906 11.5625 -14.953125 C 10.863281 -14.773438 10.234375 -14.441406 9.671875 -13.953125 C 9.109375 -13.460938 8.628906 -12.832031 8.234375 -12.0625 C 7.835938 -11.289062 7.554688 -10.378906 7.390625 -9.328125 C 7.222656 -8.285156 7.210938 -7.332031 7.359375 -6.46875 C 7.515625 -5.601562 7.796875 -4.847656 8.203125 -4.203125 C 8.609375 -3.566406 9.113281 -3.050781 9.71875 -2.65625 C 10.332031 -2.257812 11.015625 -2 11.765625 -1.875 C 12.191406 -1.800781 12.585938 -1.757812 12.953125 -1.75 C 13.316406 -1.738281 13.660156 -1.753906 13.984375 -1.796875 C 14.316406 -1.847656 14.632812 -1.929688 14.9375 -2.046875 C 15.238281 -2.171875 15.546875 -2.335938 15.859375 -2.546875 C 15.984375 -2.628906 16.117188 -2.6875 16.265625 -2.71875 C 16.410156 -2.757812 16.550781 -2.769531 16.6875 -2.75 Z M 16.6875 -2.75 "/></g></g></g><g fill="#fcfdfd" fill-opacity="1"><g transform="translate(218.805203, 57.500186)"><g><path d="M 11.578125 -8.0625 C 12.203125 -7.875 12.757812 -7.789062 13.25 -7.8125 C 13.738281 -7.84375 14.164062 -7.957031 14.53125 -8.15625 C 14.90625 -8.351562 15.210938 -8.617188 15.453125 -8.953125 C 15.691406 -9.296875 15.875 -9.6875 16 -10.125 C 16.257812 -11 16.175781 -11.765625 15.75 -12.421875 C 15.332031 -13.085938 14.523438 -13.597656 13.328125 -13.953125 L 11.46875 -14.515625 L 9.71875 -8.625 Z M 18.234375 5.4375 L 14.0625 4.1875 C 13.28125 3.957031 12.804688 3.5 12.640625 2.8125 L 11.0625 -3.953125 C 10.96875 -4.242188 10.84375 -4.472656 10.6875 -4.640625 C 10.539062 -4.816406 10.285156 -4.960938 9.921875 -5.078125 L 8.765625 -5.421875 L 6.5625 1.953125 L 1.9375 0.578125 L 7.890625 -19.359375 L 14.375 -17.421875 C 15.8125 -16.992188 16.992188 -16.476562 17.921875 -15.875 C 18.847656 -15.28125 19.550781 -14.617188 20.03125 -13.890625 C 20.519531 -13.171875 20.800781 -12.40625 20.875 -11.59375 C 20.957031 -10.789062 20.875 -9.96875 20.625 -9.125 C 20.425781 -8.476562 20.15625 -7.890625 19.8125 -7.359375 C 19.46875 -6.835938 19.050781 -6.382812 18.5625 -6 C 18.070312 -5.613281 17.523438 -5.300781 16.921875 -5.0625 C 16.316406 -4.832031 15.65625 -4.691406 14.9375 -4.640625 C 15.1875 -4.390625 15.40625 -4.109375 15.59375 -3.796875 C 15.789062 -3.484375 15.945312 -3.140625 16.0625 -2.765625 Z M 18.234375 5.4375 "/></g></g></g><g fill="#fcfdfd" fill-opacity="1"><g transform="translate(235.65414, 62.52639)"><g><path d="M 13.125 -12.921875 L 11.171875 -8.46875 L 17.171875 -5.875 L 15.75 -2.609375 L 9.75 -5.203125 L 7.78125 -0.65625 L 15.609375 2.734375 L 14.125 6.140625 L 1.84375 0.796875 L 10.15625 -18.28125 L 22.4375 -12.9375 L 20.953125 -9.53125 Z M 13.125 -12.921875 "/></g></g></g><g fill="#fcfdfd" fill-opacity="1"><g transform="translate(249.664641, 68.555655)"><g><path d="M 14.484375 -11.375 L 12.0625 -7.15625 L 17.71875 -3.90625 L 15.9375 -0.828125 L 10.28125 -4.078125 L 7.8125 0.21875 L 15.203125 4.46875 L 13.34375 7.6875 L 1.75 1 L 12.140625 -17.03125 L 23.734375 -10.34375 L 21.875 -7.125 Z M 14.484375 -11.375 "/></g></g></g><g fill="#fcfdfd" fill-opacity="1"><g transform="translate(262.877298, 75.9424)"><g><path d="M 12.921875 -5.734375 L 13.53125 -5.265625 C 14.101562 -4.828125 14.648438 -4.695312 15.171875 -4.875 L 23.015625 -7.453125 C 23.453125 -7.578125 23.835938 -7.601562 24.171875 -7.53125 C 24.515625 -7.457031 24.875 -7.273438 25.25 -6.984375 L 28.609375 -4.4375 L 18.609375 -1.453125 C 17.910156 -1.253906 17.273438 -1.207031 16.703125 -1.3125 C 16.921875 -0.988281 17.078125 -0.640625 17.171875 -0.265625 C 17.265625 0.109375 17.300781 0.519531 17.28125 0.96875 L 16.453125 12.46875 L 13.015625 9.859375 C 12.785156 9.691406 12.601562 9.53125 12.46875 9.375 C 12.34375 9.226562 12.242188 9.078125 12.171875 8.921875 C 12.109375 8.773438 12.066406 8.628906 12.046875 8.484375 C 12.035156 8.335938 12.035156 8.179688 12.046875 8.015625 L 12.65625 -0.609375 C 12.6875 -0.921875 12.628906 -1.195312 12.484375 -1.4375 C 12.335938 -1.6875 12.085938 -1.945312 11.734375 -2.21875 L 10.796875 -2.9375 L 5.453125 4.125 L 1.609375 1.21875 L 14.171875 -15.375 L 18.015625 -12.46875 Z M 12.921875 -5.734375 "/></g></g></g><g fill="#fcfdfd" fill-opacity="1"><g transform="translate(278.058008, 87.778021)"><g/></g></g><g fill="#fcfdfd" fill-opacity="1"><g transform="translate(282.500907, 91.427174)"><g><path d="M 14.0625 -1 C 14.507812 -0.519531 14.945312 -0.164062 15.375 0.0625 C 15.8125 0.289062 16.238281 0.414062 16.65625 0.4375 C 17.070312 0.457031 17.46875 0.378906 17.84375 0.203125 C 18.226562 0.0351562 18.59375 -0.203125 18.9375 -0.515625 C 19.613281 -1.128906 19.9375 -1.828125 19.90625 -2.609375 C 19.882812 -3.398438 19.445312 -4.253906 18.59375 -5.171875 L 17.28125 -6.609375 L 12.75 -2.4375 Z M 12.875 14.015625 L 9.9375 10.796875 C 9.382812 10.203125 9.210938 9.570312 9.421875 8.90625 L 11.53125 2.265625 C 11.601562 1.960938 11.617188 1.695312 11.578125 1.46875 C 11.535156 1.238281 11.382812 0.988281 11.125 0.71875 L 10.296875 -0.1875 L 4.625 5.03125 L 1.359375 1.484375 L 16.671875 -12.609375 L 21.25 -7.625 C 22.28125 -6.519531 23.035156 -5.46875 23.515625 -4.46875 C 24.003906 -3.476562 24.269531 -2.546875 24.3125 -1.671875 C 24.363281 -0.804688 24.21875 -0.0078125 23.875 0.71875 C 23.53125 1.445312 23.035156 2.113281 22.390625 2.71875 C 21.890625 3.175781 21.359375 3.539062 20.796875 3.8125 C 20.234375 4.082031 19.644531 4.257812 19.03125 4.34375 C 18.414062 4.425781 17.785156 4.414062 17.140625 4.3125 C 16.492188 4.207031 15.851562 3.988281 15.21875 3.65625 C 15.300781 4 15.34375 4.351562 15.34375 4.71875 C 15.351562 5.09375 15.3125 5.472656 15.21875 5.859375 Z M 12.875 14.015625 "/></g></g></g><g fill="#fcfdfd" fill-opacity="1"><g transform="translate(294.457433, 104.041185)"><g><path d="M 21.25 12.65625 C 20.007812 13.507812 18.707031 14.082031 17.34375 14.375 C 15.976562 14.675781 14.632812 14.707031 13.3125 14.46875 C 11.988281 14.226562 10.726562 13.710938 9.53125 12.921875 C 8.34375 12.128906 7.289062 11.066406 6.375 9.734375 C 5.46875 8.398438 4.859375 7.03125 4.546875 5.625 C 4.242188 4.21875 4.21875 2.851562 4.46875 1.53125 C 4.726562 0.21875 5.242188 -1.015625 6.015625 -2.171875 C 6.796875 -3.335938 7.804688 -4.347656 9.046875 -5.203125 C 10.296875 -6.046875 11.597656 -6.613281 12.953125 -6.90625 C 14.316406 -7.207031 15.660156 -7.238281 16.984375 -7 C 18.304688 -6.757812 19.566406 -6.238281 20.765625 -5.4375 C 21.960938 -4.644531 23.015625 -3.582031 23.921875 -2.25 C 24.835938 -0.914062 25.441406 0.453125 25.734375 1.859375 C 26.035156 3.265625 26.0625 4.625 25.8125 5.9375 C 25.5625 7.25 25.046875 8.484375 24.265625 9.640625 C 23.492188 10.804688 22.488281 11.8125 21.25 12.65625 Z M 18.46875 8.578125 C 19.320312 8.003906 20.007812 7.367188 20.53125 6.671875 C 21.050781 5.984375 21.40625 5.269531 21.59375 4.53125 C 21.789062 3.800781 21.8125 3.054688 21.65625 2.296875 C 21.5 1.535156 21.160156 0.769531 20.640625 0 C 20.109375 -0.769531 19.507812 -1.375 18.84375 -1.8125 C 18.1875 -2.25 17.484375 -2.507812 16.734375 -2.59375 C 15.984375 -2.675781 15.191406 -2.59375 14.359375 -2.34375 C 13.535156 -2.101562 12.695312 -1.695312 11.84375 -1.125 C 10.988281 -0.539062 10.296875 0.09375 9.765625 0.78125 C 9.242188 1.46875 8.882812 2.175781 8.6875 2.90625 C 8.488281 3.632812 8.46875 4.382812 8.625 5.15625 C 8.789062 5.9375 9.140625 6.710938 9.671875 7.484375 C 10.191406 8.253906 10.78125 8.847656 11.4375 9.265625 C 12.09375 9.691406 12.796875 9.945312 13.546875 10.03125 C 14.304688 10.125 15.101562 10.050781 15.9375 9.8125 C 16.769531 9.570312 17.613281 9.160156 18.46875 8.578125 Z M 18.46875 8.578125 "/></g></g></g><g fill="#fcfdfd" fill-opacity="1"><g transform="translate(306.708546, 122.169434)"><g><path d="M 22.75 7.671875 L 20.140625 2.421875 L 4.921875 9.953125 L 2.78125 5.625 L 18 -1.90625 L 15.40625 -7.15625 L 18.84375 -8.859375 L 26.1875 5.96875 Z M 22.75 7.671875 "/></g></g></g><g fill="#fcfdfd" fill-opacity="1"><g transform="translate(314.023674, 136.539812)"><g><path d="M 11.734375 9.734375 L 16.515625 6.046875 C 16.816406 5.796875 17.171875 5.515625 17.578125 5.203125 C 17.984375 4.890625 18.429688 4.566406 18.921875 4.234375 C 18.328125 4.285156 17.769531 4.3125 17.25 4.3125 C 16.726562 4.320312 16.269531 4.316406 15.875 4.296875 L 9.890625 4.34375 Z M 6.703125 19.546875 L 5.5 16.015625 C 5.363281 15.628906 5.34375 15.28125 5.4375 14.96875 C 5.53125 14.65625 5.707031 14.390625 5.96875 14.171875 L 9 11.828125 L 6.4375 4.359375 L 2.59375 4.359375 C 2.3125 4.347656 2.023438 4.25 1.734375 4.0625 C 1.441406 3.875 1.234375 3.59375 1.109375 3.21875 L -0.125 -0.359375 L 22.1875 0.515625 L 23.78125 5.1875 Z M 6.703125 19.546875 "/></g></g></g><g fill="#fcfdfd" fill-opacity="1"><g transform="translate(320.21785, 154.485308)"><g><path d="M 12.53125 6.453125 C 12.65625 7.097656 12.84375 7.628906 13.09375 8.046875 C 13.351562 8.472656 13.65625 8.800781 14 9.03125 C 14.34375 9.269531 14.71875 9.414062 15.125 9.46875 C 15.539062 9.519531 15.972656 9.503906 16.421875 9.421875 C 17.328125 9.242188 17.972656 8.8125 18.359375 8.125 C 18.742188 7.445312 18.816406 6.492188 18.578125 5.265625 L 18.1875 3.375 L 12.140625 4.5625 Z M 3.703125 18.671875 L 2.859375 14.390625 C 2.703125 13.585938 2.882812 12.957031 3.40625 12.5 L 8.65625 7.921875 C 8.882812 7.710938 9.039062 7.5 9.125 7.28125 C 9.207031 7.0625 9.210938 6.769531 9.140625 6.40625 L 8.890625 5.21875 L 1.328125 6.71875 L 0.390625 1.984375 L 20.796875 -2.078125 L 22.125 4.546875 C 22.414062 6.023438 22.507812 7.316406 22.40625 8.421875 C 22.3125 9.523438 22.0625 10.457031 21.65625 11.21875 C 21.25 11.988281 20.703125 12.597656 20.015625 13.046875 C 19.335938 13.492188 18.566406 13.800781 17.703125 13.96875 C 17.035156 14.101562 16.390625 14.140625 15.765625 14.078125 C 15.140625 14.015625 14.539062 13.859375 13.96875 13.609375 C 13.40625 13.367188 12.878906 13.035156 12.390625 12.609375 C 11.898438 12.179688 11.460938 11.65625 11.078125 11.03125 C 10.984375 11.363281 10.835938 11.6875 10.640625 12 C 10.453125 12.320312 10.21875 12.628906 9.9375 12.921875 Z M 3.703125 18.671875 "/></g></g></g><g fill="#fcfdfd" fill-opacity="1"><g transform="translate(323.722702, 171.629626)"><g><path d="M 8.6875 11.4375 L 0.796875 11.953125 L 0.46875 7.140625 L 8.359375 6.625 L 20.734375 -1.765625 L 21.015625 2.484375 C 21.046875 2.898438 20.96875 3.238281 20.78125 3.5 C 20.601562 3.757812 20.367188 3.972656 20.078125 4.140625 L 14.234375 7.484375 C 13.773438 7.765625 13.34375 8.015625 12.9375 8.234375 C 12.539062 8.460938 12.148438 8.671875 11.765625 8.859375 C 12.179688 8.972656 12.601562 9.109375 13.03125 9.265625 C 13.457031 9.421875 13.90625 9.601562 14.375 9.8125 L 20.625 12.328125 C 20.75 12.390625 20.875 12.460938 21 12.546875 C 21.132812 12.628906 21.253906 12.734375 21.359375 12.859375 C 21.472656 12.984375 21.566406 13.125 21.640625 13.28125 C 21.710938 13.445312 21.753906 13.628906 21.765625 13.828125 L 22.0625 18.09375 Z M 8.6875 11.4375 "/></g></g></g><g clip-path="url(#15f39f4291)"><g clip-path="url(#9ec952e46b)"><g clip-path="url(#08dba64e1f)"><g clip-path="url(#c19f4d7293)"><path fill="#aa0612" d="M 154.472656 264.773438 C 152.574219 269.214844 149.871094 273.269531 146.453125 276.671875 C 127.589844 295.445312 105.449219 284.800781 100.070312 283 C 94.402344 281.097656 72.925781 270.925781 75.820312 238.40625 C 75.9375 237.042969 76.105469 235.632812 76.320312 234.1875 C 81.546875 198.3125 117.5625 205.804688 117.5625 205.804688 C 133.304688 201.949219 144.40625 208.46875 149.460938 212.507812 C 151.480469 214.125 152.539062 215.347656 152.539062 215.347656 C 167.25 229.171875 159.152344 253.835938 154.472656 264.773438 Z M 154.472656 264.773438 " fill-opacity="1" fill-rule="nonzero"/></g></g></g></g><g clip-path="url(#e7d763db20)"><g clip-path="url(#ab0e36dd39)"><g clip-path="url(#11dd6da708)"><g clip-path="url(#7f4049dd9f)"><path stroke-linecap="butt" transform="matrix(0.414791, 0.0759376, -0.0761644, 0.416029, 104.093165, 79.928133)" fill="none" stroke-linejoin="miter" d="M 196.457453 408.449041 C 193.925736 419.586857 189.351799 430.167893 182.83178 439.536121 C 146.84719 491.229639 90.654615 475.900429 77.338366 474.002541 C 63.304457 471.991524 8.862771 457.478838 1.727212 380.614855 C 1.418379 377.394339 1.207984 374.043183 1.09192 370.590305 C -2.036738 284.929483 85.175435 287.019488 85.175435 287.019488 C 120.250297 271.349994 148.930775 281.785806 162.446592 289.027371 C 167.848119 291.928628 170.839608 294.321464 170.839608 294.321464 C 211.059058 320.209179 202.702738 381.018881 196.457453 408.449041 Z M 196.457453 408.449041 " stroke="#000000" stroke-width="2" stroke-opacity="1" stroke-miterlimit="10"/></g></g></g></g><g clip-path="url(#a44943569b)"><g clip-path="url(#c658ca3202)"><g clip-path="url(#cb44e8478e)"><g clip-path="url(#474f6da94f)"><path fill="#80050e" d="M 127.898438 286.945312 C 115.078125 289.535156 103.714844 284.238281 100.066406 283.019531 C 94.398438 281.117188 72.921875 270.945312 75.816406 238.425781 C 75.933594 237.0625 76.101562 235.652344 76.316406 234.207031 C 80.988281 202.148438 110.238281 204.722656 116.414062 205.632812 C 105.871094 207.410156 93.167969 213.859375 90.226562 234.0625 C 90.015625 235.507812 89.851562 236.917969 89.730469 238.28125 C 86.832031 270.800781 108.308594 280.972656 113.980469 282.875 C 116.210938 283.617188 121.324219 285.890625 127.898438 286.945312 Z M 127.898438 286.945312 " fill-opacity="1" fill-rule="nonzero"/></g></g></g></g><g clip-path="url(#49480a653d)"><g clip-path="url(#eea2b467c5)"><g clip-path="url(#2093aabe53)"><g clip-path="url(#57df5b5028)"><path fill="#54b100" d="M 170.601562 105.691406 L 163.808594 91.417969 C 163.808594 91.417969 154.867188 99.886719 153.402344 105.457031 C 151.933594 111.027344 128.703125 122.945312 125.308594 159.828125 C 121.914062 196.707031 121.914062 196.710938 121.914062 196.710938 C 121.914062 196.710938 116.476562 200.742188 117.558594 205.839844 L 126.4375 205.011719 L 125.285156 196.652344 C 125.285156 196.652344 129.648438 153.53125 130.351562 150.644531 C 132.175781 143.121094 137.273438 123.839844 157.210938 111.546875 C 157.210938 111.546875 168.738281 110.960938 170.601562 105.691406 Z M 170.601562 105.691406 " fill-opacity="1" fill-rule="nonzero"/></g></g></g></g><g clip-path="url(#c4c4e0e718)"><g clip-path="url(#a5f731b0fd)"><g clip-path="url(#662eb351ee)"><g clip-path="url(#2ebef9aa3d)"><path stroke-linecap="butt" transform="matrix(0.414791, 0.0759376, -0.0761644, 0.416029, 104.093165, 79.928133)" fill="none" stroke-linejoin="miter" d="M 166.144503 31.600309 L 144.203232 1.296511 C 144.203232 1.296511 126.962471 24.799593 125.924288 38.378321 C 124.876993 51.958712 75.777544 89.567749 83.610118 176.792423 C 91.441023 264.008012 91.442691 264.017096 91.442691 264.017096 C 91.442691 264.017096 80.480346 275.707868 85.181337 287.102915 L 105.539254 281.396451 L 99.281322 262.445475 C 99.281322 262.445475 91.04445 160.299788 91.451829 153.286691 C 92.494229 135.012513 96.151278 87.999106 137.409169 50.920006 C 137.409169 50.920006 164.048447 44.64915 166.144503 31.600309 Z M 166.144503 31.600309 " stroke="#000000" stroke-width="1.534" stroke-opacity="1" stroke-miterlimit="10"/></g></g></g></g><g clip-path="url(#1b1fef83ec)"><g clip-path="url(#32a6aeb602)"><g clip-path="url(#1c538880be)"><g clip-path="url(#1c17c2b301)"><path fill="#dd9ba0" d="M 132.054688 212.273438 C 140.839844 211.851562 151.40625 217.773438 152.246094 227.269531 C 152.3125 228.207031 152.246094 229.164062 152.078125 230.085938 C 151.597656 228.925781 151.1875 227.820312 150.625 226.808594 C 146.777344 219.472656 139.105469 215.988281 132.054688 212.273438 Z M 132.054688 212.273438 " fill-opacity="1" fill-rule="nonzero"/></g></g></g></g></svg>