<?xml version="1.0" encoding="utf-8"?>
<!-- Generator: Adobe Illustrator 20.1.0, SVG Export Plug-In . SVG Version: 6.00 Build 0)  -->
<svg version="1.1" id="Layer_2" xmlns="http://www.w3.org/2000/svg" xmlns:xlink="http://www.w3.org/1999/xlink" x="0px" y="0px"
	 viewBox="0 0 221.2 271.7" style="enable-background:new 0 0 221.2 271.7;" xml:space="preserve">
<style type="text/css">
	.st0{fill:#FFFFFF;stroke:#231F20;stroke-miterlimit:10;}
	.st1{fill:#FEEEEE;}
</style>
<title>Angelbotics Logo</title>
<path class="st0" d="M25.6,6"/>
<g>
	<polygon class="st1" points="100.5,45 120.5,45 182.2,154.7 79.1,154.7 89.7,135.5 151.9,135.3 	"/>
	<polygon class="st1" points="97.9,46.7 148.1,132.4 129,132.4 97.9,81.1 43.3,175.9 33.6,156.9 	"/>
	<polygon class="st1" points="97.9,86.2 106.4,99.9 74.4,157.6 183.2,157.6 173.5,177.4 45.6,177.4 	"/>
</g>
<g>
	<path class="st1" d="M20,226.2h-5.8l-1-6.6h-7l-1,6.6H0l5.8-36.4h8.4L20,226.2z M7,214.6h5.5l-2.8-18.4L7,214.6z"/>
	<path class="st1" d="M29.1,199.8v26.4H24v-36.4h7.2l5.9,21.8v-21.8h5.1v36.4h-5.9L29.1,199.8z"/>
	<path class="st1" d="M56.1,205.9h8v11.6c0,2.9-0.7,5.2-2.2,6.8s-3.6,2.4-6.4,2.4s-4.9-0.8-6.4-2.4c-1.4-1.6-2.2-3.8-2.2-6.8v-19
		c0-2.9,0.7-5.2,2.2-6.8c1.4-1.6,3.6-2.4,6.4-2.4s4.9,0.8,6.4,2.4s2.2,3.8,2.2,6.8v3.5h-5.4v-3.9c0.1-1-0.2-2-0.8-2.8
		c-1.2-1.1-3.1-1.1-4.3,0c-0.6,0.8-0.9,1.8-0.8,2.8v19.7c-0.1,1,0.2,2,0.8,2.8c1.3,1,3.1,1,4.3,0c0.6-0.8,0.9-1.8,0.8-2.8v-6.7H56
		L56.1,205.9z"/>
	<path class="st1" d="M74.8,205.1h7.9v5.2h-7.9V221h9.9v5.2H69v-36.4h15.6v5.2h-9.9v10.1H74.8z"/>
	<path class="st1" d="M89.5,189.8h5.7V221h9.4v5.2H89.5V189.8z"/>
	<path class="st1" d="M117,189.8c3,0,5.1,0.7,6.5,2.1c1.3,1.4,2,3.5,2,6.3v1.3c0.1,1.6-0.2,3.2-0.9,4.6c-0.6,1.2-1.6,2.2-2.8,2.7
		c1.4,0.5,2.6,1.5,3.3,2.9c0.7,1.5,1,3.2,1,4.9v3c0,2.8-0.7,4.9-2.2,6.4s-3.6,2.2-6.5,2.2h-9v-36.4L117,189.8z M114.1,195v9.6h2.2
		c0.9,0.1,1.8-0.2,2.5-0.8c0.7-0.8,1-1.9,0.9-3v-2c0.1-1-0.2-2-0.7-2.9c-0.6-0.6-1.4-1-2.2-0.9L114.1,195z M114.1,209.8V221h3.3
		c0.8,0.1,1.6-0.2,2.2-0.8c0.6-0.8,0.9-1.8,0.8-2.8v-3.2c0.1-1.2-0.2-2.5-0.9-3.5c-0.8-0.7-1.8-1-2.8-0.9H114.1z"/>
	<path class="st1" d="M130.4,198.5c0-2.9,0.7-5.2,2.2-6.8c3.7-3.1,9.2-3.1,12.9,0c1.5,1.6,2.2,3.8,2.2,6.8v18.9
		c0,2.9-0.7,5.2-2.2,6.8c-3.7,3.1-9.2,3.1-12.9,0c-1.5-1.6-2.2-3.8-2.2-6.8V198.5z M136.1,217.8c-0.1,1,0.2,2,0.8,2.8
		c1.2,1.1,3.1,1.1,4.3,0c0.6-0.8,0.9-1.8,0.8-2.8v-19.7c0.1-1-0.2-2-0.8-2.8c-1.2-1.1-3.1-1.1-4.3,0c-0.6,0.8-0.9,1.8-0.8,2.8V217.8
		z"/>
	<path class="st1" d="M151,189.8h17.7v5.2h-6v31.2H157V195h-6V189.8z"/>
	<path class="st1" d="M172.5,189.8h5.7v36.4h-5.7V189.8z"/>
	<path class="st1" d="M200.3,212.6v4.8c0,2.9-0.7,5.2-2.2,6.8s-3.6,2.4-6.4,2.4c-2.8,0-4.9-0.8-6.4-2.4c-1.4-1.6-2.1-3.8-2.1-6.8
		v-18.9c0-2.9,0.7-5.2,2.2-6.8s3.6-2.4,6.4-2.4c2.8,0,4.9,0.8,6.4,2.4s2.2,3.8,2.2,6.8v3.5H195v-3.9c0.1-1-0.2-2-0.8-2.8
		c-1.2-1.1-3.1-1.1-4.3,0c-0.6,0.8-0.9,1.8-0.8,2.8v19.7c-0.1,1,0.2,2,0.8,2.8c1.3,1,3.1,1,4.3,0c0.6-0.8,0.9-1.8,0.8-2.8v-5.2
		H200.3z"/>
	<path class="st1" d="M204.4,198.5c0-2.9,0.7-5.2,2.1-6.8c1.4-1.6,3.5-2.4,6.3-2.4s4.9,0.8,6.3,2.4s2.1,3.8,2.1,6.8v1.1h-5.4v-1.5
		c0.1-1-0.2-2-0.8-2.8c-1.2-1.1-3-1.1-4.2,0c-0.6,0.8-0.9,1.8-0.8,2.8c0,1.2,0.3,2.3,0.8,3.3c0.6,1,1.3,1.9,2.1,2.7
		c0.8,0.9,1.7,1.7,2.7,2.5c1,0.9,1.9,1.8,2.7,2.8c0.9,1,1.6,2.2,2.1,3.4c0.6,1.4,0.9,3,0.8,4.5c0,2.9-0.7,5.2-2.2,6.8
		c-1.4,1.6-3.6,2.4-6.4,2.4s-4.9-0.8-6.4-2.4c-1.4-1.6-2.2-3.8-2.2-6.8v-2.2h5.4v2.7c-0.1,1,0.2,2,0.8,2.8c1.3,1,3.1,1,4.3,0
		c0.6-0.8,0.9-1.8,0.8-2.8c0-1.2-0.3-2.3-0.8-3.3c-0.6-1-1.3-1.9-2.1-2.7s-1.7-1.7-2.7-2.5c-1-0.9-1.9-1.8-2.7-2.8
		c-0.9-1-1.6-2.2-2.1-3.4C204.6,201.6,204.3,200.1,204.4,198.5z"/>
</g>
</svg>
